<?xml version="1.0" encoding="UTF-8"?>
<svg version="1.1" xmlns="http://www.w3.org/2000/svg" width="400" height="400">
<path d="M0 0 C14.90681202 -0.38630458 29.40884421 2.25219997 43.79296875 5.90234375 C44.99300537 6.20253418 44.99300537 6.20253418 46.21728516 6.50878906 C47.66809951 6.89794868 49.1084725 7.33050787 50.52880859 7.81933594 C56.51027461 9.75756532 60.91138366 8.31040903 66.75 6.37109375 C68.61839175 5.79491985 70.48818279 5.22326308 72.359375 4.65625 C73.24947266 4.38441895 74.13957031 4.11258789 75.05664062 3.83251953 C83.96646089 1.2382733 93.27166425 0.60369804 102.5 0.12109375 C103.28375 0.07855469 104.0675 0.03601562 104.875 -0.0078125 C143.31543782 -1.00886557 180.82193378 14.94727026 208.5 41.12109375 C209.8292299 42.25093916 211.16242507 43.37614014 212.5 44.49609375 C228.34058075 58.43959896 239.93762307 76.49019207 249.5 95.12109375 C249.82162109 95.73452637 250.14324219 96.34795898 250.47460938 96.97998047 C265.79194884 126.44707968 271.97259824 160.33863082 271.8125 193.30859375 C271.81034485 194.11502319 271.8081897 194.92145264 271.80596924 195.75231934 C271.75050289 208.74426875 271.11237013 221.3596774 268.5 234.12109375 C268.20198486 235.60343506 268.20198486 235.60343506 267.89794922 237.11572266 C263.56580273 258.04956311 256.51528523 277.27127271 246.5 296.12109375 C246.02175781 297.06726563 245.54351562 298.0134375 245.05078125 298.98828125 C220.39688515 346.60067658 173.2284524 383.51218355 122.625 399.93359375 C105.2770723 405.34531968 87.26528034 409.21144884 69.0625 409.359375 C68.07280716 409.36916885 67.08311432 409.37896271 66.06343079 409.38905334 C25.18628057 409.71063704 25.18628057 409.71063704 7.5 405.12109375 C6.59942871 404.89615234 5.69885742 404.67121094 4.77099609 404.43945312 C-33.40712251 394.73960567 -67.06747529 376.37502087 -95.5 349.12109375 C-96.29470703 348.36723389 -96.29470703 348.36723389 -97.10546875 347.59814453 C-105.39849007 339.69662868 -112.7858669 331.40448286 -119.5 322.12109375 C-120.21687988 321.13012695 -120.21687988 321.13012695 -120.94824219 320.11914062 C-138.96807714 294.86523878 -151.36076423 266.54687581 -157.5 236.12109375 C-157.66226074 235.35555176 -157.82452148 234.59000977 -157.99169922 233.80126953 C-163.24225382 207.91695648 -163.16217127 176.91882109 -157.5 151.12109375 C-157.30132324 150.15574707 -157.10264648 149.19040039 -156.89794922 148.19580078 C-152.54479905 127.27133289 -145.6079394 107.93407333 -135.5 89.12109375 C-134.89800781 87.96609375 -134.29601562 86.81109375 -133.67578125 85.62109375 C-113.37364996 48.16642806 -77.88546722 18.13540434 -37.05126953 5.83203125 C-24.87136677 2.43797605 -12.61033111 0.61081291 0 0 Z M-69.34375 89.1484375 C-99.51967726 122.8639394 -107.97916614 165.16794574 -106.5 209.12109375 C-106.07184687 215.58992908 -105.02171026 221.82506884 -103.5 228.12109375 C-103.30132324 228.95463379 -103.10264648 229.78817383 -102.89794922 230.64697266 C-95.78146949 259.57666215 -81.92680345 284.52507932 -61.5 306.12109375 C-60.28957031 307.42820312 -60.28957031 307.42820312 -59.0546875 308.76171875 C-30.61172343 338.47824838 10.03658426 354.71731236 50.8359375 356.24609375 C94.16364936 356.9851592 136.2550933 341.09779193 167.5703125 311.0078125 C168.54787415 310.046588 169.52439144 309.08430051 170.5 308.12109375 C171.06138672 307.5801709 171.62277344 307.03924805 172.20117188 306.48193359 C201.33202427 278.06413011 217.10932889 236.6930406 217.85375977 196.39575195 C218.06870437 158.19737729 207.22508729 121.71390384 182.5 92.12109375 C182.07348145 91.60804687 181.64696289 91.095 181.20751953 90.56640625 C165.5038981 71.93719482 144.02088747 57.4246022 119.5 54.12109375 C118.04279072 54.06017363 116.58326541 54.03345124 115.125 54.05859375 C113.92875 54.07921875 112.7325 54.09984375 111.5 54.12109375 C112.675625 55.42046875 112.675625 55.42046875 113.875 56.74609375 C137.28010979 84.23605761 148.01675314 117.0438361 145.5 153.12109375 C142.74375258 176.29674776 130.98910709 197.70784396 113.34375 212.9296875 C93.1028805 228.52739051 68.87743761 235.06594537 43.5 232.55859375 C20.52233059 229.14516131 -1.39603509 217.76768254 -15.7421875 199.22265625 C-32.85211028 175.43007002 -38.01375494 148.34181564 -33.81640625 119.484375 C-32.992519 114.94437518 -31.86031078 110.52829221 -30.5 106.12109375 C-30.29101074 105.43982422 -30.08202148 104.75855469 -29.86669922 104.05664062 C-23.94366576 85.47561881 -13.94372144 69.9732774 -1.5 55.12109375 C-1.5 54.79109375 -1.5 54.46109375 -1.5 54.12109375 C-28.01762016 53.41708614 -52.02091825 70.43188344 -69.34375 89.1484375 Z M42.12109375 78.421875 C26.82944569 94.6709132 16.90802872 116.78112568 17.07788086 139.21508789 C17.50268082 150.66797344 21.45474535 160.81245664 29.3828125 169.0859375 C38.51237518 177.55315936 47.27428743 179.62148117 59.4453125 179.3984375 C69.04267092 178.95210038 76.90233644 173.93500734 83.41015625 167.12109375 C92.16453803 156.71248697 94.32344994 144.38778729 93.5 131.12109375 C90.52425468 107.97080386 78.81782331 85.49512218 60.4375 70.80859375 C53.05876146 65.29789028 47.73071492 72.99647784 42.12109375 78.421875 Z " fill="#0072BC" transform="translate(160.5,-0.12109375)"/>
<path d="M0 0 C16.08294859 -0.04537684 32.16584141 -0.08212179 48.24883652 -0.10362434 C55.71864892 -0.11387954 63.18841834 -0.1278278 70.65820312 -0.15087891 C77.17882834 -0.17099117 83.69942238 -0.18375809 90.22007775 -0.18817699 C93.66366203 -0.19075463 97.10715724 -0.1966884 100.55071259 -0.21146011 C156.39189572 -0.42417362 156.39189572 -0.42417362 174.1875 15.5 C194.26771428 36.79966049 190.30318278 72.52634619 190.20278788 99.51038504 C190.19008442 103.5154712 190.18909487 107.52056208 190.18673706 111.52566528 C190.18057883 119.07210376 190.16424666 126.61848266 190.14403808 134.16489518 C190.12150035 142.77224645 190.11064123 151.37960093 190.10064721 159.98697448 C190.07987375 177.65801647 190.04481083 195.3290034 190 213 C171.27484842 213.04691351 152.54970892 213.08208301 133.82451057 213.10362434 C125.1282669 213.11389633 116.43205994 213.12787775 107.73583984 213.15087891 C100.14802774 213.17093864 92.56024225 213.18374599 84.97240436 213.18817699 C80.96215126 213.19076328 76.95197424 213.19675493 72.94174576 213.21146011 C18.61580499 213.40263833 18.61580499 213.40263833 1.3125 197.875 C-14.07408025 181.63162641 -12.56863503 156.10586133 -12.140625 135.46240234 C-11.47247777 119.01159681 -6.98348426 103.44246039 5.125 91.75 C15.91153097 82.64943101 29.48780078 80.67310474 43.14111328 80.77294922 C44.20571274 80.77265717 45.27031219 80.77236511 46.36717224 80.77206421 C49.8516381 80.77344662 53.33588445 80.78895627 56.8203125 80.8046875 C59.24982588 80.8084215 61.67934077 80.81126665 64.1088562 80.81326294 C70.47758197 80.82086887 76.84621532 80.84049113 83.21490479 80.8626709 C89.72398631 80.88319498 96.23308289 80.89227866 102.7421875 80.90234375 C115.49483091 80.92373999 128.24741052 80.95745006 141 81 C140.86163149 78.45017373 140.71758644 75.90087721 140.5703125 73.3515625 C140.51290894 72.27757202 140.51290894 72.27757202 140.4543457 71.18188477 C140.01825513 63.7852806 139.43061039 56.84936251 133.8125 51.5 C127.28913408 46.04005383 117.88304506 46.69667435 109.89257812 46.68115234 C108.7014743 46.67110672 107.51037048 46.6610611 106.28317261 46.65071106 C103.03993979 46.62523846 99.79680149 46.60831103 96.55349922 46.59528303 C93.15553009 46.57957981 89.75764791 46.5528128 86.35974121 46.5272522 C79.93558406 46.48059104 73.51141033 46.44378596 67.08717108 46.41057932 C59.76905394 46.37226806 52.45102441 46.3228817 45.1329813 46.27259517 C30.08871318 46.1694638 15.04440318 46.08160441 0 46 C0 30.82 0 15.64 0 0 Z M39.6875 129.125 C34.87357216 137.32650668 35.14895585 146.97556145 37.375 155.95703125 C38.52527543 159.71699406 39.94524054 162.16058452 43.02494812 164.61152649 C47.17124709 166.54662763 50.76711289 166.39660584 55.28833008 166.34057617 C56.67930908 166.34123329 56.67930908 166.34123329 58.09838867 166.34190369 C61.15565227 166.33981795 64.21236374 166.31649675 67.26953125 166.29296875 C69.39230551 166.28737204 71.51508364 166.2831023 73.63786316 166.28010559 C79.21925596 166.26866278 84.80041377 166.23920024 90.38171387 166.20599365 C97.08143 166.16987883 103.78122478 166.15612895 110.48101044 166.13863373 C120.65417028 166.10956278 130.82681475 166.05207128 141 166 C141 152.14 141 138.28 141 124 C124.8193516 123.91271363 124.8193516 123.91271363 108.63867188 123.85351562 C102.03727975 123.835596 95.4360127 123.81441754 88.8347168 123.77368164 C83.51142571 123.74103848 78.1882688 123.72313643 72.86488533 123.71536827 C70.83594718 123.70983369 68.8070162 123.69902598 66.7781353 123.68280983 C63.93192667 123.66096986 61.08626945 123.65803584 58.23999023 123.65942383 C57.40488922 123.648638 56.56978821 123.63785217 55.7093811 123.6267395 C49.38623471 123.66001216 44.49579876 124.7065633 39.6875 129.125 Z " fill="#0072BC" transform="translate(1411,93)"/>
<path d="M0 0 C16.08294859 -0.04537684 32.16584141 -0.08212179 48.24883652 -0.10362434 C55.71864892 -0.11387954 63.18841834 -0.1278278 70.65820312 -0.15087891 C77.17882834 -0.17099117 83.69942238 -0.18375809 90.22007775 -0.18817699 C93.66366203 -0.19075463 97.10715724 -0.1966884 100.55071259 -0.21146011 C156.39189572 -0.42417362 156.39189572 -0.42417362 174.1875 15.5 C193.62486308 36.07842286 190.29584839 69.01782026 190.20278788 95.11445475 C190.19013768 99.27037801 190.18909892 103.42630533 190.18673706 107.58224487 C190.18056371 115.42276785 190.16421008 123.26323389 190.14403808 131.10373199 C190.12154868 140.04230262 190.11065313 148.98087621 190.10064721 157.91946816 C190.07983931 176.27967751 190.04474553 194.63983415 190 213 C171.27484842 213.04691351 152.54970892 213.08208301 133.82451057 213.10362434 C125.1282669 213.11389633 116.43205994 213.12787775 107.73583984 213.15087891 C100.14802774 213.17093864 92.56024225 213.18374599 84.97240436 213.18817699 C80.96215126 213.19076328 76.95197424 213.19675493 72.94174576 213.21146011 C18.37251748 213.40349448 18.37251748 213.40349448 2.84375 199 C-12.84133517 182.61259758 -12.51699091 159.04865732 -12.09326172 137.78515625 C-11.54044837 121.27600796 -8.21016484 104.44444566 4.25 92.6875 C19.84853899 79.79270777 37.94622943 80.57634533 57.11328125 80.70703125 C59.53850541 80.71263529 61.963733 80.71690156 64.38896179 80.71989441 C70.73303818 80.73127955 77.07690437 80.76069167 83.42089844 80.79400635 C89.91012734 80.82484443 96.39939062 80.83842897 102.88867188 80.85351562 C115.59253693 80.8855679 128.29625722 80.93609975 141 81 C140.86524977 78.27563645 140.72365408 75.55191643 140.578125 72.828125 C140.54090332 72.06129395 140.50368164 71.29446289 140.46533203 70.50439453 C140.08124347 63.49289543 139.08984109 57.91311182 134.9375 52.125 C127.43380925 46.69679818 118.61999864 46.55599586 109.66552734 46.56762695 C108.47413147 46.5574353 107.2827356 46.54724365 106.05523682 46.53674316 C102.82033041 46.51190015 99.5856973 46.49991973 96.35071135 46.49388909 C92.95807279 46.48444615 89.56556252 46.4582385 86.17300415 46.43388367 C79.76307281 46.39037656 73.35316659 46.36173306 66.943133 46.33856028 C59.63945893 46.31142342 52.33591492 46.26751754 45.03233409 46.22227156 C30.02161287 46.12965167 15.01089335 46.06008075 0 46 C0 30.82 0 15.64 0 0 Z M39.6875 129.5625 C35.51152187 138.06912212 35.19133703 146.93823501 37.53125 156.07421875 C39.15355071 160.52588916 41.90796636 163.69624326 46 166 C49.1460326 166.68435557 52.19285506 166.63418168 55.40185547 166.56762695 C56.32932083 166.56835709 57.25678619 166.56908722 58.21235657 166.56983948 C61.26457089 166.5663682 64.31524123 166.5275283 67.3671875 166.48828125 C69.48852708 166.4789515 71.60987747 166.47183616 73.73123169 166.46684265 C79.30458513 166.44778575 84.87728324 166.39869553 90.45037842 166.34332275 C97.14252175 166.2830912 103.83488466 166.26020787 110.52722168 166.23105621 C120.68526972 166.18263048 130.8418809 166.08680504 141 166 C141 152.14 141 138.28 141 124 C124.8193516 123.91271363 124.8193516 123.91271363 108.63867188 123.85351562 C102.03727975 123.835596 95.4360127 123.81441754 88.8347168 123.77368164 C83.51142571 123.74103848 78.1882688 123.72313643 72.86488533 123.71536827 C70.83594718 123.70983369 68.8070162 123.69902598 66.7781353 123.68280983 C63.93192667 123.66096986 61.08626945 123.65803584 58.23999023 123.65942383 C57.40488922 123.648638 56.56978821 123.63785217 55.7093811 123.6267395 C49.28594061 123.66053992 44.18086485 124.58336597 39.6875 129.5625 Z " fill="#0072BC" transform="translate(1809,93)"/>
<path d="M0 0 C15.64711982 11.69660937 23.12561999 30.83870209 31.81542969 47.75878906 C33.99357074 51.98484877 36.2083752 56.19104855 38.4296875 60.39453125 C49.86546583 82.07789505 61.15282387 103.84022356 72.38972473 125.62722778 C73.741774 128.24866988 75.09471854 130.86964961 76.44760132 133.49066162 C77.40142843 135.33974828 78.35369833 137.18963093 79.3059082 139.03955078 C82.55875761 145.34225256 85.86813972 151.59970784 89.3671875 157.76953125 C89.6971875 157.76953125 90.0271875 157.76953125 90.3671875 157.76953125 C90.3671875 103.97953125 90.3671875 50.18953125 90.3671875 -5.23046875 C106.5371875 -5.23046875 122.7071875 -5.23046875 139.3671875 -5.23046875 C139.41243322 16.28456765 139.44923408 37.79956519 139.47081184 59.31463718 C139.48109959 69.30572279 139.49511179 79.2967766 139.51806641 89.2878418 C139.5380772 98.00179487 139.55092209 106.7157249 139.55536449 115.42970031 C139.55795891 120.03844967 139.56400409 124.64713316 139.57864761 129.25586128 C139.59235338 133.60522339 139.59638425 137.95449331 139.59340286 142.30387497 C139.59394727 143.88917354 139.59784657 145.47447561 139.60559845 147.05975533 C139.68684063 164.5511167 139.22602881 183.92498227 127.25 197.87109375 C118.30812132 206.8871789 108.82294694 209.8592668 96.2421875 210.01953125 C83.26405807 209.89241931 72.52123843 206.59465549 62.8046875 197.76953125 C53.08331927 187.30210453 46.74588103 173.42701045 40.06640625 160.94140625 C38.57655239 158.1603457 37.07923779 155.38345977 35.57804871 152.60850525 C29.1661358 140.75393511 22.82719564 128.874995 16.8605957 116.78808594 C14.1367014 111.27567216 11.31408675 105.82455235 8.4296875 100.39453125 C4.80587833 93.56884867 1.30414784 86.69112882 -2.1328125 79.76953125 C-5.72425 72.54143687 -9.37478016 65.35007642 -13.1328125 58.20703125 C-13.54208984 57.42779297 -13.95136719 56.64855469 -14.37304688 55.84570312 C-16.36049173 52.08720188 -18.39693443 48.38850056 -20.6328125 44.76953125 C-21.93489491 45.84708453 -21.93489491 45.84708453 -21.75586033 48.42259312 C-21.75493854 49.61631503 -21.75401674 50.81003695 -21.75306702 52.03993225 C-21.75434865 53.03351711 -21.75434865 53.03351711 -21.75565618 54.04717439 C-21.75731283 56.28285995 -21.75178664 58.51847167 -21.74633789 60.75415039 C-21.74605603 62.35033669 -21.74621373 63.94652312 -21.7467804 65.54270935 C-21.74706842 69.8896302 -21.74117085 74.23652369 -21.73420644 78.58343816 C-21.72797378 83.12117072 -21.72736917 87.65890384 -21.72618103 92.19664001 C-21.72306745 100.79560965 -21.71485372 109.39456664 -21.70483154 117.99353069 C-21.69367122 127.78054853 -21.68816016 137.56756696 -21.68313611 147.35458958 C-21.67267112 167.49291211 -21.65432532 187.63121729 -21.6328125 207.76953125 C-37.4728125 207.76953125 -53.3128125 207.76953125 -69.6328125 207.76953125 C-69.72331 185.22869202 -69.79690895 162.68800121 -69.84006119 140.14702606 C-69.86063526 129.6794939 -69.88865667 119.21208313 -69.93457031 108.74462891 C-69.97459657 99.61498983 -70.00028272 90.48543871 -70.00916648 81.35571432 C-70.01435463 76.52719823 -70.02643968 71.69893367 -70.05573273 66.87049866 C-70.0831521 62.31340893 -70.0912047 57.75667115 -70.08524323 53.19950676 C-70.08633173 51.53882361 -70.09412614 49.87812704 -70.1096344 48.21751595 C-70.24205178 33.28930861 -68.62257169 19.24158727 -59.6328125 6.76953125 C-58.7665625 5.40828125 -58.7665625 5.40828125 -57.8828125 4.01953125 C-42.98625514 -10.87702611 -17.0744338 -11.21021133 0 0 Z " fill="#0072BC" transform="translate(587.6328125,98.23046875)"/>
<path d="M0 0 C21.6975 -0.04125 43.395 -0.0825 65.75 -0.125 C72.56366211 -0.14320801 79.37732422 -0.16141602 86.39746094 -0.18017578 C94.81298828 -0.18920898 94.81298828 -0.18920898 98.77105713 -0.19088745 C101.49525614 -0.19392902 104.21925969 -0.20012443 106.94342041 -0.21115112 C164.51866317 -0.43336006 164.51866317 -0.43336006 182.98046875 15.734375 C204.04117322 37.49245379 200.33491955 73.46378544 200.26074219 101.30810547 C200.24934841 105.63112989 200.25611799 109.95390812 200.26762009 114.27692413 C200.40540718 175.16544723 200.40540718 175.16544723 185.625 194.375 C166.89510738 213.10489262 141.23177678 213.21853907 116.35758781 213.2319603 C112.811597 213.22930391 109.2656796 213.21677441 105.71971893 213.20256042 C102.35624116 213.19098722 98.9927677 213.19062441 95.62927246 213.18920898 C85.85699708 213.17880352 76.08474665 213.15088129 66.3125 213.125 C44.429375 213.08375 22.54625 213.0425 0 213 C0 142.71 0 72.42 0 0 Z M49 46 C49 85.93 49 125.86 49 167 C68.5215625 167.061875 68.5215625 167.061875 88.4375 167.125 C92.53212646 167.14320801 96.62675293 167.16141602 100.84545898 167.18017578 C104.54694199 167.18686864 104.54694199 167.18686864 108.24842834 167.19088745 C109.8847106 167.19393914 111.52098863 167.20093248 113.15724182 167.21115112 C129.67686669 167.91318065 129.67686669 167.91318065 144 161 C149.2985092 152.90146561 150.11622758 145.0556917 150.14526367 135.56518555 C150.14862228 134.8696759 150.1519809 134.17416626 150.15544128 133.45758057 C150.1648525 131.18394122 150.1668894 128.9103763 150.16796875 126.63671875 C150.17118816 125.03782624 150.17455273 123.43893403 150.17805481 121.84004211 C150.18402153 118.497277 150.18589725 115.15453764 150.18530273 111.81176758 C150.18520125 107.55544346 150.19885007 103.29928667 150.21607494 99.04300213 C150.22726339 95.74246989 150.22921985 92.44197724 150.22869301 89.14142799 C150.22986296 87.57354977 150.23422852 86.00567018 150.24202538 84.4378109 C150.78385591 66.48727947 150.78385591 66.48727947 143 51 C136.28467443 46.23696496 129.00433721 45.84678392 120.97509766 45.88647461 C120.18139959 45.88635407 119.38770153 45.88623354 118.56995201 45.88610935 C116.01795966 45.88685172 113.46604167 45.89444896 110.9140625 45.90234375 C109.33162471 45.90381527 107.74918643 45.90483468 106.16674805 45.90539551 C100.31949124 45.9106241 94.47224488 45.92458536 88.625 45.9375 C75.54875 45.958125 62.4725 45.97875 49 46 Z " fill="#0072BC" transform="translate(1182,93)"/>
<path d="M0 0 C61.05 0 122.1 0 185 0 C185 15.18 185 30.36 185 46 C162.56 46 140.12 46 117 46 C117 101.11 117 156.22 117 213 C100.83 213 84.66 213 68 213 C68 157.89 68 102.78 68 46 C45.56 46 23.12 46 0 46 C0 30.82 0 15.64 0 0 Z " fill="#0072BC" transform="translate(1609,93)"/>
<path d="M0 0 C60.72 0 121.44 0 184 0 C184 15.18 184 30.36 184 46 C161.56 46 139.12 46 116 46 C116 101.11 116 156.22 116 213 C99.83 213 83.66 213 67 213 C67 157.89 67 102.78 67 46 C44.89 46 22.78 46 0 46 C0 30.82 0 15.64 0 0 Z " fill="#0072BC" transform="translate(941,93)"/>
<path d="M0 0 C60.72 0 121.44 0 184 0 C184 15.18 184 30.36 184 46 C161.89 46 139.78 46 117 46 C117 101.11 117 156.22 117 213 C100.83 213 84.66 213 68 213 C68 157.89 68 102.78 68 46 C45.56 46 23.12 46 0 46 C0 30.82 0 15.64 0 0 Z " fill="#0072BC" transform="translate(742,93)"/>
</svg>
